<?xml version="1.0" encoding="UTF-8" standalone="no"?>
<!-- Created with Inkscape (http://www.inkscape.org/) -->

<svg
   xmlns:dc="http://purl.org/dc/elements/1.1/"
   xmlns:cc="http://creativecommons.org/ns#"
   xmlns:rdf="http://www.w3.org/1999/02/22-rdf-syntax-ns#"
   xmlns:svg="http://www.w3.org/2000/svg"
   xmlns="http://www.w3.org/2000/svg"
   xmlns:sodipodi="http://sodipodi.sourceforge.net/DTD/sodipodi-0.dtd"
   xmlns:inkscape="http://www.inkscape.org/namespaces/inkscape"
   version="1.1"
   width="185"
   height="107.77472"
   id="svg2"
   xml:space="preserve"
   inkscape:version="0.48.3.1 r9886"
   sodipodi:docname="vdi_black.svg"><sodipodi:namedview
     pagecolor="#8c8c8c"
     bordercolor="#666666"
     borderopacity="1"
     objecttolerance="10"
     gridtolerance="10"
     guidetolerance="10"
     inkscape:pageopacity="0.58823529"
     inkscape:pageshadow="2"
     inkscape:window-width="1586"
     inkscape:window-height="997"
     id="namedview14"
     showgrid="false"
     inkscape:zoom="1.3273767"
     inkscape:cx="327.09321"
     inkscape:cy="52.049883"
     inkscape:window-x="142"
     inkscape:window-y="62"
     inkscape:window-maximized="0"
     inkscape:current-layer="svg2"
     showborder="false" /><metadata
     id="metadata8"><rdf:RDF><cc:Work
         rdf:about=""><dc:format>image/svg+xml</dc:format><dc:type
           rdf:resource="http://purl.org/dc/dcmitype/StillImage" /><dc:title></dc:title></cc:Work></rdf:RDF></metadata><defs
     id="defs6"><clipPath
       id="clipPath24"><path
         d="m 0,939.907 828.083,0 L 828.083,0 0,0 0,939.907 z"
         id="path26" /></clipPath></defs><path
     inkscape:connector-curvature="0"
     style="fill:#000000;fill-opacity:1;fill-rule:nonzero;stroke:none"
     id="path14"
     d="m 5,33.951055 0,67.574335 18.225513,0 37.388875,-67.574335 -7.545325,0 -27.900613,50.596812 0,-50.569762 L 5,33.951105 z" /><path
     inkscape:connector-curvature="0"
     style="fill:#000000;fill-opacity:1;fill-rule:nonzero;stroke:none"
     id="path18"
     d="m 26.830363,101.44074 7.445762,5.7e-4 37.389163,-67.574355 -7.53585,0.01363 -37.299075,67.56012 z" /><path
     inkscape:connector-curvature="0"
     style="fill:#000000;fill-opacity:1;fill-rule:nonzero;stroke:none"
     id="path30"
     d="m 109.40709,67.401292 c 0,0 -3.09973,9.138825 -9.15083,20.005025 -7.603872,13.656103 -16.604385,15.368403 -30.095935,15.368403 -13.49155,0 -26.740762,-1.38379 -26.740762,-1.38379 l 2.730487,-4.984388 16.591288,0.02125 c 0,0 5.759662,0.480225 10.989175,-4.340738 3.352949,-3.091088 7.389712,-9.52535 11.012612,-16.8802 0,0 11.87825,-2.681413 24.663965,-7.805513" /><path
     inkscape:connector-curvature="0"
     style="fill:#000000;fill-opacity:1;fill-rule:nonzero;stroke:none"
     id="path34"
     d="m 74.893487,33.93528 -3.323112,6.1473 18.11005,0 c 0,0 8.806137,-0.332138 4.65225,11.96275 -1.929,5.709463 -4.648062,12.7199 -8.063762,19.956788 -7.159625,2.330575 -15.54325,4.768525 -25.218088,7.154325 0,0 64.379235,-10.385125 102.255035,-42.203701 C 216.1998,-7.4817075 126.49399,7.39168 126.49399,7.39168 c 0,0 60.31096,-7.549225 38.95003,18.870838 -10.59736,13.10725 -23.14686,20.0792 -23.14686,20.0792 l 3.36745,-12.390538 -19.35636,0.02675 -6.69306,24.169513 c 0,0 -2.7213,1.672149 -8.46171,4.308662 1.917,-6.03435 4.37809,-16.268612 0.932,-20.948188 -6.22846,-8.459487 -16.193605,-8.164712 -16.193605,-8.164712 0,0 -8.3839,0.082 -20.998388,0.592063" /><path
     inkscape:connector-curvature="0"
     style="fill:#000000;fill-opacity:1;fill-rule:nonzero;stroke:none"
     id="path38"
     d="m 127.51671,101.3909 -20.11406,0 10.49277,-37.061745 c 0,0 12.68895,-5.019813 22.31024,-10.7368 l -13.03755,47.798545 -19.76546,0" /><path
     inkscape:connector-curvature="0"
     style="fill:#000000;fill-opacity:1;fill-rule:nonzero;stroke:none"
     id="path42"
     d="m 128.91111,20.545455 c 0,-5.621625 4.55743,-10.179038 10.17904,-10.179038 5.62162,0 10.17905,4.557413 10.17905,10.179038 0,5.621625 -4.55743,10.179037 -10.17905,10.179037 -5.62161,0 -10.17904,-4.557412 -10.17904,-10.179037" /><text
     xml:space="preserve"
     style="font-size:12px;font-style:normal;font-variant:normal;font-weight:normal;font-stretch:normal;line-height:125%;letter-spacing:0px;word-spacing:0px;fill:#000000;fill-opacity:1;stroke:none;font-family:Bitstream Charter;-inkscape-font-specification:Bitstream Charter"
     x="170.99989"
     y="87.265388"
     id="text3819"
     sodipodi:linespacing="125%"><tspan
       sodipodi:role="line"
       id="tspan3821"></tspan></text>
</svg>